<svg xmlns="http://www.w3.org/2000/svg" viewBox="0 0 64 64" role="img" data-catalog-id="feather-wiki"><title>Feather Wiki fallback icon</title><defs><linearGradient id="g" x1="8" y1="5" x2="56" y2="59" gradientUnits="userSpaceOnUse"><stop stop-color="#342b36"/><stop offset="1" stop-color="#1d171f"/></linearGradient><linearGradient id="r" x1="32" y1="4" x2="32" y2="60" gradientUnits="userSpaceOnUse"><stop stop-color="#FFF7EF" stop-opacity=".18"/><stop offset="1" stop-color="#FFF7EF" stop-opacity=".04"/></linearGradient></defs><rect x="2" y="2" width="60" height="60" rx="15" fill="url(#g)"/><rect x="2.5" y="2.5" width="59" height="59" rx="14.5" fill="none" stroke="url(#r)"/><path d="M62 0V720H553V617H192V392H529V289H192V0Z" transform="translate(10.935 41.087) scale(0.02524 -0.02524)" fill="#FFF7EF"/><path d="M246 0 39 720H171L327 133L472 720H622L765 132L922 720H1048L841 0H693L544 586L394 0Z" transform="translate(25.046 41.087) scale(0.02524 -0.02524)" fill="#FFF7EF"/><rect x="48" y="10" width="6" height="6" rx="2" fill="#F26419"/></svg>
