<svg xmlns="http://www.w3.org/2000/svg" viewBox="0 0 64 64" role="img" data-catalog-id="jirafeau"><title>Jirafeau fallback icon</title><defs><linearGradient id="g" x1="8" y1="5" x2="56" y2="59" gradientUnits="userSpaceOnUse"><stop stop-color="#342b36"/><stop offset="1" stop-color="#1d171f"/></linearGradient><linearGradient id="r" x1="32" y1="4" x2="32" y2="60" gradientUnits="userSpaceOnUse"><stop stop-color="#FFF7EF" stop-opacity=".18"/><stop offset="1" stop-color="#FFF7EF" stop-opacity=".04"/></linearGradient></defs><rect x="2" y="2" width="60" height="60" rx="15" fill="url(#g)"/><rect x="2.5" y="2.5" width="59" height="59" rx="14.5" fill="none" stroke="url(#r)"/><path d="M137 -10Q99 -10 64.0 -4.5Q29 1 13 9V113Q33 105 61.0 99.5Q89 94 118 94Q180 94 209.0 117.0Q238 140 238 195V720H368V189Q368 89 309.5 39.5Q251 -10 137 -10Z" transform="translate(22.595 43.185) scale(0.03151 -0.03151)" fill="#FFF7EF"/><path d="M62 0V720H192V0Z" transform="translate(34.946 43.185) scale(0.03151 -0.03151)" fill="#FFF7EF"/><rect x="48" y="10" width="6" height="6" rx="2" fill="#F26419"/></svg>
