<svg xmlns="http://www.w3.org/2000/svg" viewBox="0 0 64 64" role="img" data-catalog-id="piefed"><title>PieFed fallback icon</title><defs><linearGradient id="g" x1="8" y1="5" x2="56" y2="59" gradientUnits="userSpaceOnUse"><stop stop-color="#3b2a2c"/><stop offset="1" stop-color="#211719"/></linearGradient><linearGradient id="r" x1="32" y1="4" x2="32" y2="60" gradientUnits="userSpaceOnUse"><stop stop-color="#FFF7EF" stop-opacity=".18"/><stop offset="1" stop-color="#FFF7EF" stop-opacity=".04"/></linearGradient></defs><rect x="2" y="2" width="60" height="60" rx="15" fill="url(#g)"/><rect x="2.5" y="2.5" width="59" height="59" rx="14.5" fill="none" stroke="url(#r)"/><path d="M62 0V720H385Q503 720 570.5 660.5Q638 601 638 501Q638 434 607.5 384.5Q577 335 520.0 307.5Q463 280 385 280H192V0ZM379 617H192V382H379Q441 382 474.5 414.0Q508 446 508 501Q508 555 474.5 586.0Q441 617 379 617Z" transform="translate(17.849 43.500) scale(0.03194 -0.03194)" fill="#FFF7EF"/><path d="M62 0V720H192V0Z" transform="translate(38.037 43.500) scale(0.03194 -0.03194)" fill="#FFF7EF"/><rect x="48" y="10" width="6" height="6" rx="2" fill="#F26419"/></svg>
