<svg xmlns="http://www.w3.org/2000/svg" viewBox="0 0 64 64" role="img" data-catalog-id="uusec-waf"><title>UUSEC WAF fallback icon</title><defs><linearGradient id="g" x1="8" y1="5" x2="56" y2="59" gradientUnits="userSpaceOnUse"><stop stop-color="#3a3027"/><stop offset="1" stop-color="#201a15"/></linearGradient><linearGradient id="r" x1="32" y1="4" x2="32" y2="60" gradientUnits="userSpaceOnUse"><stop stop-color="#FFF7EF" stop-opacity=".18"/><stop offset="1" stop-color="#FFF7EF" stop-opacity=".04"/></linearGradient></defs><rect x="2" y="2" width="60" height="60" rx="15" fill="url(#g)"/><rect x="2.5" y="2.5" width="59" height="59" rx="14.5" fill="none" stroke="url(#r)"/><path d="M351 -10Q205 -10 130.0 73.0Q55 156 55 311V720H185V292Q185 193 229.0 144.5Q273 96 352 96Q431 96 475.0 144.5Q519 193 519 291V720H649V310Q649 155 573.5 72.5Q498 -10 351 -10Z" transform="translate(11.209 40.330) scale(0.02347 -0.02347)" fill="#FFF7EF"/><path d="M246 0 39 720H171L327 133L472 720H622L765 132L922 720H1048L841 0H693L544 586L394 0Z" transform="translate(26.908 40.330) scale(0.02347 -0.02347)" fill="#FFF7EF"/><rect x="48" y="10" width="6" height="6" rx="2" fill="#F26419"/></svg>
